<?xml version="1.0" encoding="UTF-8" standalone="no"?>
<!DOCTYPE svg PUBLIC "-//W3C//DTD SVG 1.1//EN" "http://www.w3.org/Graphics/SVG/1.1/DTD/svg11.dtd">
<svg version="1.1" xmlns="http://www.w3.org/2000/svg" xmlns:xlink="http://www.w3.org/1999/xlink" preserveAspectRatio="xMidYMid meet" viewBox="0 0 640 640" width="640" height="640"><defs><path d="M412.67 297.01C412.67 395.98 332.32 476.33 233.35 476.33C134.39 476.33 54.04 395.98 54.04 297.01C54.04 198.05 134.39 117.7 233.35 117.7C332.32 117.7 412.67 198.05 412.67 297.01Z" id="e1LzT6aKQi"></path><path d="M382.97 426.4C382.97 477.13 341.79 518.31 291.07 518.31C240.35 518.31 199.17 477.13 199.17 426.4C199.17 375.68 240.35 334.5 291.07 334.5C341.79 334.5 382.97 375.68 382.97 426.4Z" id="b4ZeJEJhca"></path><path d="M474.86 426.4C474.86 477.13 433.69 518.31 382.97 518.31C332.24 518.31 291.07 477.13 291.07 426.4C291.07 375.68 332.24 334.5 382.97 334.5C433.69 334.5 474.86 375.68 474.86 426.4Z" id="bAf2GV2f2"></path><path d="M382.97 360.52C382.97 412.86 341.79 455.35 291.07 455.35C240.35 455.35 199.17 412.86 199.17 360.52C199.17 308.17 240.35 265.68 291.07 265.68C341.79 265.68 382.97 308.17 382.97 360.52Z" id="b7kGcxMWGy"></path><path d="M559.74 426.4C559.74 477.13 518.56 518.31 467.84 518.31C417.12 518.31 375.94 477.13 375.94 426.4C375.94 375.68 417.12 334.5 467.84 334.5C518.56 334.5 559.74 375.68 559.74 426.4Z" id="bN41hO1Js"></path><path d="M279.09 426.4C279.09 477.13 237.91 518.31 187.19 518.31C136.47 518.31 95.29 477.13 95.29 426.4C95.29 375.68 136.47 334.5 187.19 334.5C237.91 334.5 279.09 375.68 279.09 426.4Z" id="a9LWSNpjm"></path></defs><g><g><g><use xlink:href="#e1LzT6aKQi" opacity="1" fill="#ffce21" fill-opacity="1"></use><g><use xlink:href="#e1LzT6aKQi" opacity="1" fill-opacity="0" stroke="#782bf0" stroke-width="1" stroke-opacity="0"></use></g></g><g><use xlink:href="#b4ZeJEJhca" opacity="1" fill="#c6c6c6" fill-opacity="1"></use><g><use xlink:href="#b4ZeJEJhca" opacity="1" fill-opacity="0" stroke="#000000" stroke-width="1" stroke-opacity="0"></use></g></g><g><use xlink:href="#bAf2GV2f2" opacity="1" fill="#c6c6c6" fill-opacity="1"></use><g><use xlink:href="#bAf2GV2f2" opacity="1" fill-opacity="0" stroke="#000000" stroke-width="1" stroke-opacity="0"></use></g></g><g><use xlink:href="#b7kGcxMWGy" opacity="1" fill="#c6c6c6" fill-opacity="1"></use><g><use xlink:href="#b7kGcxMWGy" opacity="1" fill-opacity="0" stroke="#000000" stroke-width="1" stroke-opacity="0"></use></g></g><g><use xlink:href="#bN41hO1Js" opacity="1" fill="#c6c6c6" fill-opacity="1"></use><g><use xlink:href="#bN41hO1Js" opacity="1" fill-opacity="0" stroke="#000000" stroke-width="1" stroke-opacity="0"></use></g></g><g><use xlink:href="#a9LWSNpjm" opacity="1" fill="#c6c6c6" fill-opacity="1"></use><g><use xlink:href="#a9LWSNpjm" opacity="1" fill-opacity="0" stroke="#000000" stroke-width="1" stroke-opacity="0"></use></g></g></g></g></svg>