<?xml version="1.0" encoding="UTF-8" standalone="no"?>
<!DOCTYPE svg PUBLIC "-//W3C//DTD SVG 1.1//EN" "http://www.w3.org/Graphics/SVG/1.1/DTD/svg11.dtd">
<svg version="1.1" xmlns="http://www.w3.org/2000/svg" xmlns:xlink="http://www.w3.org/1999/xlink" preserveAspectRatio="xMidYMid meet" viewBox="0 0 640 640" width="640" height="640"><defs><path d="M464.98 263.39C464.98 351.22 393.67 422.52 305.84 422.52C218.02 422.52 146.71 351.22 146.71 263.39C146.71 175.56 218.02 104.26 305.84 104.26C393.67 104.26 464.98 175.56 464.98 263.39Z" id="dfwZMXbJi"></path><path d="" id="a17LTQv7RB"></path><path d="" id="aDy8sobqO"></path><path d="M85.09 329.2C72.02 337.55 63.14 351.08 60.69 366.4C59.12 376.22 61.46 361.58 60.69 366.4C55.56 398.45 59.9 431.3 73.18 460.92C76.72 468.82 69.11 451.84 73.18 460.92C84.46 486.08 105.85 505.29 132.08 513.8C146.38 518.45 138.97 516.04 150.99 519.94C185.29 531.08 222.13 531.7 256.79 521.73C267.53 518.64 258.65 521.2 272.41 517.24C297.51 510.02 323.86 508.12 349.74 511.67C371.75 514.7 403.34 519.03 426.55 522.22C448.42 525.22 470.68 523.05 491.56 515.89C505.7 511.05 485.21 518.07 491.56 515.89C535.66 500.77 569.11 464.35 580.42 419.11C582.35 411.37 576.79 433.62 580.42 419.11C586.34 395.4 578.29 370.38 559.65 354.57C550.81 347.07 565.74 359.73 559.65 354.57C531.11 330.36 494.89 317.07 457.46 317.07C417.37 317.07 317.14 317.07 156.77 317.07C140.68 317.07 130.62 317.07 126.6 317.07C111.89 317.07 97.48 321.28 85.09 329.2C80.98 331.83 88.88 326.77 85.09 329.2Z" id="dxt7qdcIy"></path><path d="M261.41 239.46C246.39 266.4 251.71 300.12 274.3 321.13C280.39 326.8 266.6 313.97 274.3 321.13C293.89 339.35 319.65 349.49 346.41 349.51C382.85 349.54 469.67 349.6 510.89 349.63C522.37 349.64 533.51 345.77 542.5 338.64C555.24 328.54 541.4 339.51 544.6 336.98C578.32 310.25 583.29 260.95 555.57 228.04C551.64 223.37 565.7 240.06 555.57 228.04C543.1 213.23 524.8 204.59 505.44 204.37C468.43 203.95 380.96 202.95 342.22 202.51C327.73 202.35 313.31 204.43 299.46 208.68C294.42 210.23 303.64 207.4 299.46 208.68C283.28 213.65 269.65 224.68 261.41 239.46C256.29 248.64 263.97 234.85 261.41 239.46Z" id="a9lYWNpOR"></path><path d="M59.13 163.09C44.11 190.03 49.44 223.75 72.02 244.76C78.12 250.43 64.33 237.6 72.02 244.76C91.62 262.98 117.38 273.12 144.13 273.14C180.58 273.16 267.4 273.23 308.62 273.26C320.09 273.27 331.23 269.39 340.23 262.27C352.97 252.17 339.13 263.14 342.33 260.6C376.05 233.88 381.01 184.58 353.3 151.66C349.37 147 363.43 163.69 353.3 151.66C340.83 136.86 322.53 128.22 303.17 128C266.15 127.58 178.69 126.58 139.94 126.14C125.46 125.98 111.04 128.06 97.19 132.31C92.15 133.86 101.37 131.03 97.19 132.31C81.01 137.28 67.38 148.31 59.13 163.09C54.02 172.27 61.7 158.48 59.13 163.09Z" id="e8qsTaqk9"></path><path d="M148.48 329.73C133.46 356.67 138.78 390.39 161.37 411.4C167.47 417.07 153.68 404.24 161.37 411.4C180.96 429.62 206.72 439.76 233.48 439.78C269.92 439.8 356.74 439.87 397.97 439.9C409.44 439.91 420.58 436.03 429.57 428.91C442.31 418.81 428.48 429.78 431.67 427.25C465.39 400.52 470.36 351.22 442.65 318.31C438.72 313.64 452.77 330.33 442.65 318.31C430.18 303.5 411.88 294.86 392.52 294.64C355.5 294.22 268.03 293.22 229.29 292.78C214.81 292.62 200.39 294.7 186.54 298.95C181.5 300.5 190.72 297.67 186.54 298.95C170.36 303.92 156.72 314.95 148.48 329.73C143.36 338.91 151.05 325.12 148.48 329.73Z" id="cSejf14Z0"></path></defs><g><g><g><use xlink:href="#dfwZMXbJi" opacity="1" fill="#ffce21" fill-opacity="1"></use><g><use xlink:href="#dfwZMXbJi" opacity="1" fill-opacity="0" stroke="#782bf0" stroke-width="1" stroke-opacity="0"></use></g></g><g><g><use xlink:href="#a17LTQv7RB" opacity="1" fill-opacity="0" stroke="#000000" stroke-width="1" stroke-opacity="1"></use></g></g><g><g><use xlink:href="#aDy8sobqO" opacity="1" fill-opacity="0" stroke="#000000" stroke-width="1" stroke-opacity="1"></use></g></g><g><use xlink:href="#dxt7qdcIy" opacity="1" fill="#589315" fill-opacity="1"></use><g><use xlink:href="#dxt7qdcIy" opacity="1" fill-opacity="0" stroke="#000000" stroke-width="1" stroke-opacity="0"></use></g></g><g><use xlink:href="#a9lYWNpOR" opacity="1" fill="#a2a2a2" fill-opacity="0.56"></use></g><g><use xlink:href="#e8qsTaqk9" opacity="1" fill="#a2a2a2" fill-opacity="0.56"></use></g><g><use xlink:href="#cSejf14Z0" opacity="1" fill="#a2a2a2" fill-opacity="0.56"></use></g></g></g></svg>