<?xml version="1.0" encoding="UTF-8" standalone="no"?>
<!DOCTYPE svg PUBLIC "-//W3C//DTD SVG 1.1//EN" "http://www.w3.org/Graphics/SVG/1.1/DTD/svg11.dtd">
<svg version="1.1" xmlns="http://www.w3.org/2000/svg" xmlns:xlink="http://www.w3.org/1999/xlink" preserveAspectRatio="xMidYMid meet" viewBox="0 0 640 640" width="640" height="640"><defs><path d="M460.57 326.29C460.57 425.26 380.22 505.61 281.25 505.61C182.29 505.61 101.94 425.26 101.94 326.29C101.94 227.33 182.29 146.98 281.25 146.98C380.22 146.98 460.57 227.33 460.57 326.29Z" id="a7TtjaRCe"></path><path d="M549.93 487.02C549.93 537.74 508.75 578.92 458.03 578.92C407.31 578.92 366.13 537.74 366.13 487.02C366.13 436.29 407.31 395.11 458.03 395.11C508.75 395.11 549.93 436.29 549.93 487.02Z" id="a9EDd9UeN"></path><path d="M373.15 201.25C373.15 251.97 331.97 293.15 281.25 293.15C230.53 293.15 189.35 251.97 189.35 201.25C189.35 150.53 230.53 109.35 281.25 109.35C331.97 109.35 373.15 150.53 373.15 201.25Z" id="a1tBuZ494Z"></path><path d="M465.05 487.02C465.05 537.74 423.87 578.92 373.15 578.92C322.43 578.92 281.25 537.74 281.25 487.02C281.25 436.29 322.43 395.11 373.15 395.11C423.87 395.11 465.05 436.29 465.05 487.02Z" id="e5SvPhJei"></path><path d="M269.27 487.02C269.27 537.74 228.09 578.92 177.37 578.92C126.65 578.92 85.48 537.74 85.48 487.02C85.48 436.29 126.65 395.11 177.37 395.11C228.09 395.11 269.27 436.29 269.27 487.02Z" id="a5XBfivnG"></path><path d="M373.15 487.02C373.15 537.74 331.97 578.92 281.25 578.92C230.53 578.92 189.35 537.74 189.35 487.02C189.35 436.29 230.53 395.11 281.25 395.11C331.97 395.11 373.15 436.29 373.15 487.02Z" id="b2UDAfvYuP"></path><path d="M373.15 421.13C373.15 473.47 331.97 515.97 281.25 515.97C230.53 515.97 189.35 473.47 189.35 421.13C189.35 368.79 230.53 326.29 281.25 326.29C331.97 326.29 373.15 368.79 373.15 421.13Z" id="a32InLzxdw"></path><path d="M566.55 201.25C566.55 251.97 525.37 293.15 474.65 293.15C423.93 293.15 382.75 251.97 382.75 201.25C382.75 150.53 423.93 109.35 474.65 109.35C525.37 109.35 566.55 150.53 566.55 201.25Z" id="hbTf0BgVV"></path><path d="M474.65 201.25C474.65 251.97 433.47 293.15 382.75 293.15C332.03 293.15 290.85 251.97 290.85 201.25C290.85 150.53 332.03 109.35 382.75 109.35C433.47 109.35 474.65 150.53 474.65 201.25Z" id="b24PQGk5Pg"></path><path d="M474.65 145.88C474.65 198.22 433.47 240.72 382.75 240.72C332.03 240.72 290.85 198.22 290.85 145.88C290.85 93.54 332.03 51.04 382.75 51.04C433.47 51.04 474.65 93.54 474.65 145.88Z" id="baQu8TIMw"></path></defs><g><g><g><use xlink:href="#a7TtjaRCe" opacity="1" fill="#ffce21" fill-opacity="1"></use><g><use xlink:href="#a7TtjaRCe" opacity="1" fill-opacity="0" stroke="#782bf0" stroke-width="1" stroke-opacity="0"></use></g></g><g><use xlink:href="#a9EDd9UeN" opacity="1" fill="#c6c6c6" fill-opacity="1"></use><g><use xlink:href="#a9EDd9UeN" opacity="1" fill-opacity="0" stroke="#000000" stroke-width="1" stroke-opacity="0"></use></g></g><g><use xlink:href="#a1tBuZ494Z" opacity="1" fill="#c6c6c6" fill-opacity="1"></use><g><use xlink:href="#a1tBuZ494Z" opacity="1" fill-opacity="0" stroke="#000000" stroke-width="1" stroke-opacity="0"></use></g></g><g><use xlink:href="#e5SvPhJei" opacity="1" fill="#c6c6c6" fill-opacity="1"></use><g><use xlink:href="#e5SvPhJei" opacity="1" fill-opacity="0" stroke="#000000" stroke-width="1" stroke-opacity="0"></use></g></g><g><use xlink:href="#a5XBfivnG" opacity="1" fill="#c6c6c6" fill-opacity="1"></use><g><use xlink:href="#a5XBfivnG" opacity="1" fill-opacity="0" stroke="#000000" stroke-width="1" stroke-opacity="0"></use></g></g><g><use xlink:href="#b2UDAfvYuP" opacity="1" fill="#c6c6c6" fill-opacity="1"></use><g><use xlink:href="#b2UDAfvYuP" opacity="1" fill-opacity="0" stroke="#000000" stroke-width="1" stroke-opacity="0"></use></g></g><g><use xlink:href="#a32InLzxdw" opacity="1" fill="#c6c6c6" fill-opacity="1"></use><g><use xlink:href="#a32InLzxdw" opacity="1" fill-opacity="0" stroke="#000000" stroke-width="1" stroke-opacity="0"></use></g></g><g><use xlink:href="#hbTf0BgVV" opacity="1" fill="#c6c6c6" fill-opacity="1"></use><g><use xlink:href="#hbTf0BgVV" opacity="1" fill-opacity="0" stroke="#000000" stroke-width="1" stroke-opacity="0"></use></g></g><g><use xlink:href="#b24PQGk5Pg" opacity="1" fill="#c6c6c6" fill-opacity="1"></use><g><use xlink:href="#b24PQGk5Pg" opacity="1" fill-opacity="0" stroke="#000000" stroke-width="1" stroke-opacity="0"></use></g></g><g><use xlink:href="#baQu8TIMw" opacity="1" fill="#c6c6c6" fill-opacity="1"></use><g><use xlink:href="#baQu8TIMw" opacity="1" fill-opacity="0" stroke="#000000" stroke-width="1" stroke-opacity="0"></use></g></g></g></g></svg>