<?xml version="1.0" encoding="UTF-8" standalone="no"?>
<!DOCTYPE svg PUBLIC "-//W3C//DTD SVG 1.1//EN" "http://www.w3.org/Graphics/SVG/1.1/DTD/svg11.dtd">
<svg version="1.1" xmlns="http://www.w3.org/2000/svg" xmlns:xlink="http://www.w3.org/1999/xlink" preserveAspectRatio="xMidYMid meet" viewBox="0 0 640 640" width="640" height="640"><defs><path d="M316.67 275.27C316.67 340.68 265.16 393.78 201.72 393.78C138.27 393.78 86.76 340.68 86.76 275.27C86.76 209.86 138.27 156.75 201.72 156.75C265.16 156.75 316.67 209.86 316.67 275.27Z" id="a1nkmsD8Wj"></path><path d="M443.64 275.27C443.64 340.68 392.13 393.78 328.69 393.78C265.24 393.78 213.73 340.68 213.73 275.27C213.73 209.86 265.24 156.75 328.69 156.75C392.13 156.75 443.64 209.86 443.64 275.27Z" id="bhxsmedR6"></path><path d="M558.6 275.27C558.6 340.68 507.09 393.78 443.64 393.78C380.2 393.78 328.69 340.68 328.69 275.27C328.69 209.86 380.2 156.75 443.64 156.75C507.09 156.75 558.6 209.86 558.6 275.27Z" id="e2uuNqVFgP"></path><path d="M443.64 203.86C443.64 271.36 392.13 326.16 328.69 326.16C265.24 326.16 213.73 271.36 213.73 203.86C213.73 136.36 265.24 81.56 328.69 81.56C392.13 81.56 443.64 136.36 443.64 203.86Z" id="b3h1N6ZeDw"></path><path d="M213.97 465.72C213.97 476.36 205.33 485 194.69 485C184.05 485 175.41 476.36 175.41 465.72C175.41 455.08 184.05 446.44 194.69 446.44C205.33 446.44 213.97 455.08 213.97 465.72Z" id="g5ot7Vxp8"></path><path d="M303.37 539.16C303.37 549.8 294.73 558.44 284.09 558.44C273.45 558.44 264.81 549.8 264.81 539.16C264.81 528.52 273.45 519.88 284.09 519.88C294.73 519.88 303.37 528.52 303.37 539.16Z" id="a2pP2Qe1f"></path><path d="M345.98 442.28C345.98 452.92 337.34 461.56 326.7 461.56C316.06 461.56 307.42 452.92 307.42 442.28C307.42 431.64 316.06 423 326.7 423C337.34 423 345.98 431.64 345.98 442.28Z" id="acETDilb"></path><path d="M418.32 539.16C418.32 549.8 409.68 558.44 399.04 558.44C388.4 558.44 379.77 549.8 379.77 539.16C379.77 528.52 388.4 519.88 399.04 519.88C409.68 519.88 418.32 528.52 418.32 539.16Z" id="a56cFBz4g"></path><path d="M465.04 452.4C465.04 463.04 456.4 471.68 445.76 471.68C435.12 471.68 426.48 463.04 426.48 452.4C426.48 441.76 435.12 433.12 445.76 433.12C456.4 433.12 465.04 441.76 465.04 452.4Z" id="a4II65LvsM"></path></defs><g><g><g><use xlink:href="#a1nkmsD8Wj" opacity="1" fill="#c6c6c6" fill-opacity="1"></use><g><use xlink:href="#a1nkmsD8Wj" opacity="1" fill-opacity="0" stroke="#000000" stroke-width="1" stroke-opacity="0"></use></g></g><g><use xlink:href="#bhxsmedR6" opacity="1" fill="#c6c6c6" fill-opacity="1"></use><g><use xlink:href="#bhxsmedR6" opacity="1" fill-opacity="0" stroke="#000000" stroke-width="1" stroke-opacity="0"></use></g></g><g><use xlink:href="#e2uuNqVFgP" opacity="1" fill="#c6c6c6" fill-opacity="1"></use><g><use xlink:href="#e2uuNqVFgP" opacity="1" fill-opacity="0" stroke="#000000" stroke-width="1" stroke-opacity="0"></use></g></g><g><use xlink:href="#b3h1N6ZeDw" opacity="1" fill="#c6c6c6" fill-opacity="1"></use><g><use xlink:href="#b3h1N6ZeDw" opacity="1" fill-opacity="0" stroke="#000000" stroke-width="1" stroke-opacity="0"></use></g></g><g><use xlink:href="#g5ot7Vxp8" opacity="1" fill="#9ddcff" fill-opacity="1"></use></g><g><use xlink:href="#a2pP2Qe1f" opacity="1" fill="#9ddcff" fill-opacity="1"></use></g><g><use xlink:href="#acETDilb" opacity="1" fill="#9ddcff" fill-opacity="1"></use></g><g><use xlink:href="#a56cFBz4g" opacity="1" fill="#9ddcff" fill-opacity="1"></use></g><g><use xlink:href="#a4II65LvsM" opacity="1" fill="#9ddcff" fill-opacity="1"></use></g></g></g></svg>