<?xml version="1.0" encoding="UTF-8" standalone="no"?>
<!DOCTYPE svg PUBLIC "-//W3C//DTD SVG 1.1//EN" "http://www.w3.org/Graphics/SVG/1.1/DTD/svg11.dtd">
<svg version="1.1" xmlns="http://www.w3.org/2000/svg" xmlns:xlink="http://www.w3.org/1999/xlink" preserveAspectRatio="xMidYMid meet" viewBox="0 0 640 640" width="640" height="640"><defs><path d="M329.06 346.35L355.21 418.99L381.6 411.26L410.96 531.81L347.6 443.71L326.14 457.13L265.81 353.31L329.06 346.35Z" id="e4hpwtmSpO"></path><path d="M300.82 259.01C300.82 324.42 249.31 377.53 185.86 377.53C122.42 377.53 70.91 324.42 70.91 259.01C70.91 193.6 122.42 140.5 185.86 140.5C249.31 140.5 300.82 193.6 300.82 259.01Z" id="e9tlJ0F5t"></path><path d="M427.79 259.01C427.79 324.42 376.28 377.53 312.83 377.53C249.38 377.53 197.87 324.42 197.87 259.01C197.87 193.6 249.38 140.5 312.83 140.5C376.28 140.5 427.79 193.6 427.79 259.01Z" id="b1usMTXedt"></path><path d="M542.74 259.01C542.74 324.42 491.23 377.53 427.79 377.53C364.34 377.53 312.83 324.42 312.83 259.01C312.83 193.6 364.34 140.5 427.79 140.5C491.23 140.5 542.74 193.6 542.74 259.01Z" id="b1esHbfB8"></path><path d="M427.79 187.61C427.79 255.1 376.28 309.9 312.83 309.9C249.38 309.9 197.87 255.1 197.87 187.61C197.87 120.11 249.38 65.31 312.83 65.31C376.28 65.31 427.79 120.11 427.79 187.61Z" id="g1l5tDRSd3"></path><path d="M248.99 463.5C248.99 474.14 240.35 482.78 229.71 482.78C219.07 482.78 210.43 474.14 210.43 463.5C210.43 452.86 219.07 444.22 229.71 444.22C240.35 444.22 248.99 452.86 248.99 463.5Z" id="a3gmyRNeFo"></path><path d="M240.49 447.58L197.87 422.58L211.43 469.46L240.49 447.58Z" id="a1sB7ZHjXO"></path><path d="M338.39 536.94C338.39 547.58 329.75 556.22 319.11 556.22C308.47 556.22 299.83 547.58 299.83 536.94C299.83 526.3 308.47 517.66 319.11 517.66C329.75 517.66 338.39 526.3 338.39 536.94Z" id="i8ZMa9cgr"></path><path d="M329.89 521.02L287.27 496.02L300.83 542.89L329.89 521.02Z" id="c4rSmixVZP"></path><path d="M500.06 450.18C500.06 460.82 491.42 469.46 480.78 469.46C470.14 469.46 461.5 460.82 461.5 450.18C461.5 439.54 470.14 430.9 480.78 430.9C491.42 430.9 500.06 439.54 500.06 450.18Z" id="a2G7HPCgJ"></path><path d="M491.56 434.26L448.95 409.26L462.5 456.13L491.56 434.26Z" id="kEhiMYEHb"></path></defs><g><g><g><use xlink:href="#e4hpwtmSpO" opacity="1" fill="#ffe805" fill-opacity="1"></use><g><use xlink:href="#e4hpwtmSpO" opacity="1" fill-opacity="0" stroke="#000000" stroke-width="1" stroke-opacity="0"></use></g></g><g><use xlink:href="#e9tlJ0F5t" opacity="1" fill="#c6c6c6" fill-opacity="1"></use><g><use xlink:href="#e9tlJ0F5t" opacity="1" fill-opacity="0" stroke="#000000" stroke-width="1" stroke-opacity="0"></use></g></g><g><use xlink:href="#b1usMTXedt" opacity="1" fill="#c6c6c6" fill-opacity="1"></use><g><use xlink:href="#b1usMTXedt" opacity="1" fill-opacity="0" stroke="#000000" stroke-width="1" stroke-opacity="0"></use></g></g><g><use xlink:href="#b1esHbfB8" opacity="1" fill="#c6c6c6" fill-opacity="1"></use><g><use xlink:href="#b1esHbfB8" opacity="1" fill-opacity="0" stroke="#000000" stroke-width="1" stroke-opacity="0"></use></g></g><g><use xlink:href="#g1l5tDRSd3" opacity="1" fill="#c6c6c6" fill-opacity="1"></use><g><use xlink:href="#g1l5tDRSd3" opacity="1" fill-opacity="0" stroke="#000000" stroke-width="1" stroke-opacity="0"></use></g></g><g><use xlink:href="#a3gmyRNeFo" opacity="1" fill="#3dbaff" fill-opacity="1"></use></g><g><use xlink:href="#a1sB7ZHjXO" opacity="1" fill="#3dbaff" fill-opacity="1"></use><g><use xlink:href="#a1sB7ZHjXO" opacity="1" fill-opacity="0" stroke="#000000" stroke-width="1" stroke-opacity="0"></use></g></g><g><use xlink:href="#i8ZMa9cgr" opacity="1" fill="#3dbaff" fill-opacity="1"></use></g><g><use xlink:href="#c4rSmixVZP" opacity="1" fill="#3dbaff" fill-opacity="1"></use><g><use xlink:href="#c4rSmixVZP" opacity="1" fill-opacity="0" stroke="#000000" stroke-width="1" stroke-opacity="0"></use></g></g><g><use xlink:href="#a2G7HPCgJ" opacity="1" fill="#3dbaff" fill-opacity="1"></use></g><g><use xlink:href="#kEhiMYEHb" opacity="1" fill="#3dbaff" fill-opacity="1"></use><g><use xlink:href="#kEhiMYEHb" opacity="1" fill-opacity="0" stroke="#000000" stroke-width="1" stroke-opacity="0"></use></g></g></g></g></svg>